<svg width="159" height="171" viewBox="0 0 159 171" fill="none" xmlns="http://www.w3.org/2000/svg">
<path d="M5.8428 1.51377L1.66167 5.27883C1.24048 5.65811 1 6.19829 1 6.76506V164.06C1 164.612 1.22817 165.139 1.63046 165.517L5.82381 169.458C6.19467 169.806 6.68443 170 7.19334 170H151.807C152.316 170 152.805 169.806 153.176 169.458L157.37 165.517C157.772 165.139 158 164.612 158 164.06V6.76506C158 6.19827 157.76 5.6581 157.338 5.27883L153.157 1.51377C152.79 1.18302 152.313 1 151.819 1H7.18113C6.68686 1 6.2101 1.18302 5.8428 1.51377Z" fill="#0B0A3D" stroke="url(#paint0_linear_928_9514)" stroke-width="2"/>
<g filter="url(#filter0_b_928_9514)">
<path d="M86.3338 58.1592L77.5313 67.1067L67.9286 58.1592H55.125L43.9219 69.9258V80.9079L77.1312 115.012L110.34 80.9079V69.9258L99.1373 58.1592H86.3338Z" fill="#D9D9D9" fill-opacity="0.25"/>
</g>
<path d="M85.7553 58.7471L78.8748 65.741C78.127 66.5012 76.9098 66.5276 76.1297 65.8007L68.4956 58.6875C68.1312 58.348 67.6517 58.1592 67.1537 58.1592H55.9688C55.43 58.1592 54.9147 58.38 54.5432 58.7703L44.4647 69.3556C44.1162 69.7216 43.9219 70.2076 43.9219 70.713V80.1078C43.9219 80.6208 44.1221 81.1136 44.48 81.4811L76.1039 113.957C76.8832 114.758 78.1714 114.75 78.9409 113.94L109.799 81.4778C110.147 81.1119 110.34 80.6264 110.34 80.1216V70.713C110.34 70.2076 110.146 69.7216 109.798 69.3556L99.7192 58.7703C99.3476 58.38 98.8324 58.1592 98.2936 58.1592H87.1586C86.6309 58.1592 86.1254 58.371 85.7553 58.7471Z" stroke="white" stroke-width="2"/>
<path d="M43 91.2632L70.6744 119" stroke="#0057FE" stroke-width="2" stroke-linecap="round"/>
<path d="M94 51H103.885C104.431 51 104.954 51.2274 105.326 51.6278L116.269 63.3918C116.607 63.756 116.796 64.235 116.796 64.7324V80.1251" stroke="#0066FE" stroke-width="2" stroke-linecap="round"/>
<defs>
<filter id="filter0_b_928_9514" x="28.8105" y="43.0479" width="96.6406" height="87.0757" filterUnits="userSpaceOnUse" color-interpolation-filters="sRGB">
<feFlood flood-opacity="0" result="BackgroundImageFix"/>
<feGaussianBlur in="BackgroundImageFix" stdDeviation="7.55566"/>
<feComposite in2="SourceAlpha" operator="in" result="effect1_backgroundBlur_928_9514"/>
<feBlend mode="normal" in="SourceGraphic" in2="effect1_backgroundBlur_928_9514" result="shape"/>
</filter>
<linearGradient id="paint0_linear_928_9514" x1="9.42021" y1="2" x2="86.8763" y2="198.939" gradientUnits="userSpaceOnUse">
<stop stop-color="#0085FF"/>
<stop offset="1" stop-color="#0038FE"/>
</linearGradient>
</defs>
</svg>
