<svg width="159" height="171" viewBox="0 0 159 171" fill="none" xmlns="http://www.w3.org/2000/svg">
<g id="Embrace the future of iGaming_icon">
<g id="Group 231">
<path id="Rectangle 10032" d="M5.8428 1.51377L1.66167 5.27883C1.24048 5.65811 1 6.19829 1 6.76506V164.06C1 164.612 1.22817 165.139 1.63046 165.517L5.82381 169.458C6.19467 169.806 6.68443 170 7.19334 170H151.807C152.316 170 152.805 169.806 153.176 169.458L157.37 165.517C157.772 165.139 158 164.612 158 164.06V6.76506C158 6.19827 157.76 5.6581 157.338 5.27883L153.157 1.51377C152.79 1.18302 152.313 1 151.819 1H7.18113C6.68686 1 6.2101 1.18302 5.8428 1.51377Z" fill="#4E4706" stroke="url(#paint0_linear_949_157)" stroke-width="2"/>
</g>
<g id="Group 245">
<path id="Vector" d="M102.652 37.6353L77.0574 47.8545C76.8489 47.9377 76.6744 48.0887 76.5622 48.2832L59.4453 77.9304" stroke="#F7AD09" stroke-width="2" stroke-linecap="round"/>
<path id="Vector_2" d="M80.4541 56.2073L104.301 46.6683C104.902 46.4278 105.57 46.8133 105.662 47.4542L109.324 72.8755C109.335 72.9463 109.321 73.0188 109.285 73.0809L93.6246 100.205C93.5755 100.291 93.5683 100.393 93.6052 100.484L99.8158 115.763C99.8526 115.854 99.8455 115.957 99.7963 116.042L91.0764 131.145C90.9601 131.347 90.675 131.36 90.5431 131.169L79.7315 115.588C79.6445 115.462 79.4802 115.418 79.3411 115.482L61.7622 123.55C61.136 123.838 60.4136 123.421 60.3494 122.735L58.5478 103.477C58.5335 103.324 58.4126 103.204 58.2605 103.192L39.3608 101.619C39.13 101.6 38.9986 101.347 39.1148 101.145L47.8348 86.042C47.8839 85.9569 47.9695 85.8992 48.0665 85.8858L64.4039 83.6248C64.5009 83.6114 64.5864 83.5537 64.6355 83.4686L80.2959 56.3441C80.3318 56.2819 80.3876 56.2337 80.4541 56.2073Z" fill="#D9D9D9" fill-opacity="0.25"/>
<path id="Vector_3" d="M80.4541 56.207L104.301 46.668C104.902 46.4276 105.57 46.8131 105.662 47.4539L109.324 72.8752C109.335 72.9461 109.321 73.0185 109.285 73.0807L93.6246 100.205C93.5754 100.29 93.5683 100.393 93.6051 100.484L99.8157 115.763C99.8526 115.854 99.8454 115.957 99.7963 116.042L91.0763 131.145C90.9601 131.347 90.675 131.359 90.543 131.169L79.7314 115.588C79.6444 115.462 79.4802 115.417 79.3411 115.481L61.7622 123.55C61.136 123.838 60.4136 123.42 60.3494 122.734L58.5477 103.476C58.5335 103.324 58.4126 103.204 58.2605 103.191L39.3607 101.619C39.13 101.6 38.9986 101.347 39.1148 101.145L47.8348 86.0417C47.8839 85.9566 47.9695 85.899 48.0664 85.8855L64.4039 83.6245C64.5008 83.6111 64.5864 83.5534 64.6355 83.4683L80.2958 56.3438C80.3317 56.2817 80.3875 56.2334 80.4541 56.207Z" stroke="white" stroke-width="2"/>
<path id="Vector_4" d="M61.7449 132.951L77.3166 125.957C77.778 125.75 78.3216 125.92 78.5827 126.353L87.2615 140.754" stroke="#FC8D03" stroke-width="2" stroke-linecap="round"/>
</g>
</g>
<defs>
<linearGradient id="paint0_linear_949_157" x1="9.42021" y1="2" x2="109.226" y2="193.853" gradientUnits="userSpaceOnUse">
<stop stop-color="#F4C10D"/>
<stop offset="1" stop-color="#FF7A00"/>
</linearGradient>
</defs>
</svg>
