<svg width="339" height="46" viewBox="0 0 339 46" fill="none" xmlns="http://www.w3.org/2000/svg">
<g filter="url(#filter0_dd_928_9463)">
<path d="M18.0754 34.1917L18.7043 34.1433L15.5117 34.1433L12.3675 34.1433C12.4965 34.1755 12.69 34.1917 12.948 34.1917C13.1737 34.1917 13.5768 34.1917 14.1573 34.1917C14.7377 34.2239 15.1892 34.24 15.5117 34.24C15.8342 34.24 16.2857 34.2239 16.8661 34.1917C17.4788 34.1917 17.8819 34.1917 18.0754 34.1917ZM28.3787 29.8381C28.6045 29.9349 28.7818 29.9188 28.9108 29.7898C28.9753 29.693 28.9431 29.6447 28.8141 29.6447C28.7496 29.6447 28.669 29.6447 28.5722 29.6447C28.411 29.6447 28.2981 29.6608 28.2336 29.693C28.2014 29.7253 28.2497 29.7737 28.3787 29.8381ZM48.0663 12.0371C48.5177 12.0371 48.9047 11.9404 49.2272 11.7469C49.5497 11.5534 49.7915 11.4567 49.9528 11.4567C50.1785 11.4567 50.8074 11.7791 51.8393 12.4241C52.8713 13.0368 53.5646 13.5206 53.9193 13.8753L54.5965 14.6492L53.8226 14.9395C53.2421 15.133 52.9357 15.2297 52.9035 15.2297L50.9686 16.1488C50.0334 16.6325 49.2433 16.8744 48.5984 16.8744C48.2759 16.8744 48.0018 16.8582 47.776 16.826C47.5825 16.7937 47.3246 16.7776 47.0021 16.7776C46.5828 16.7776 46.2442 16.8744 45.9863 17.0679C45.5993 17.4548 42.052 19.422 35.3443 22.9693C28.282 26.8068 24.7508 28.7417 24.7508 28.774C24.7508 28.903 25.7828 28.9674 27.8466 28.9674C30.8457 28.9674 34.522 28.8707 38.8755 28.6772C43.2613 28.4837 45.696 28.2902 46.1797 28.0967C46.5667 27.9678 46.8086 27.9033 46.9053 27.9033C47.1956 27.9033 47.6954 28.1935 48.4049 28.774C49.1788 29.3867 49.6303 29.693 49.7593 29.693L49.856 29.6447C49.9528 29.6447 50.0495 29.6285 50.1463 29.5963C50.2753 29.5963 50.4043 29.5963 50.5333 29.5963C51.017 29.5963 51.3072 29.8704 51.404 30.4186L51.404 30.7088C51.404 31.1603 51.0654 31.7892 50.3881 32.5954C49.7109 33.4338 49.1305 33.8531 48.6467 33.8531C48.5822 33.8531 48.4855 33.8369 48.3565 33.8047C48.2275 33.8047 48.1146 33.8047 48.0179 33.8047L47.3407 33.8047C44.6318 33.8047 38.2306 34.0465 28.1369 34.5303C18.0754 35.014 12.8996 35.3365 12.6094 35.4977C12.4804 35.5945 12.303 35.6428 12.0773 35.6428C11.7225 35.6428 11.0614 35.4816 10.094 35.1591C8.83632 34.7399 8.20748 34.4496 8.20748 34.2884C8.20748 34.0949 8.04623 33.9982 7.72375 33.9982C7.30453 33.9982 6.54669 33.7241 5.45025 33.1758C4.35381 32.6276 3.80559 32.2568 3.80559 32.0633C3.80559 31.6763 4.17645 31.4828 4.91816 31.4828C5.27289 31.4828 5.57925 31.5473 5.83723 31.6763C5.96622 31.773 6.15971 31.8214 6.4177 31.8214C6.86917 31.8214 7.85275 31.5312 9.36841 30.9507L12.2708 29.8381L13.7703 30.6605C14.6087 31.0797 15.1892 31.2893 15.5117 31.2893C15.5762 31.2893 15.6084 31.2732 15.6084 31.2409C15.6084 31.112 15.2537 30.8378 14.5442 30.4186C13.6735 29.9026 13.2382 29.5157 13.2382 29.2577C13.2382 29.1287 13.3511 28.9674 13.5768 28.774C13.7703 28.645 18.5753 26.307 27.9918 21.76C37.5372 17.213 43.1 14.4719 44.6802 13.5367C46.4539 12.537 47.5825 12.0371 48.0663 12.0371ZM72.3499 18.0837C73.1239 17.6 73.6399 17.3581 73.8978 17.3581C74.1558 17.3581 74.2848 17.6644 74.2848 18.2772C74.2848 18.4707 74.2526 19.0189 74.1881 19.9218C74.1558 20.341 74.1397 20.8731 74.1397 21.5181C74.1397 22.4211 74.2526 22.8725 74.4783 22.8725C74.6073 22.8725 74.7685 22.7758 74.962 22.5823C75.1878 22.3566 75.1716 22.1631 74.9137 22.0018C74.8492 21.9696 74.8169 21.9051 74.8169 21.8083C74.8169 21.5504 75.736 20.6958 77.5741 19.2446C78.2191 18.7286 78.7028 18.4223 79.0253 18.3255C79.38 18.2288 80.0572 18.1804 81.0569 18.1804C82.4436 18.1804 83.1047 18.261 83.0402 18.4223C82.9757 18.5835 80.5732 21.5342 75.8327 27.2744L68.6736 35.8363L66.4485 36.9489C65.5133 37.4004 64.7877 37.8196 64.2717 38.2066C63.7558 38.6258 63.1431 39.2708 62.4336 40.1415C61.3372 41.4636 60.6438 42.1247 60.3536 42.1247C60.2246 42.1247 60.1762 42.0118 60.2085 41.7861C60.2085 41.5926 62.482 38.7225 67.029 33.1758C71.6405 27.5324 73.9785 24.6462 74.043 24.5172C74.1719 24.2592 74.0752 24.1463 73.7527 24.1786L73.6076 24.227L73.4141 24.227C72.9949 24.227 72.5273 23.9206 72.0113 23.3079C71.5921 22.8564 71.318 22.4694 71.189 22.1469C71.0922 21.8245 71.0439 21.2924 71.0439 20.5507C71.0439 19.7122 71.0922 19.1962 71.189 19.0027C71.318 18.777 71.705 18.4707 72.3499 18.0837ZM104.27 22.9693C104.27 22.8403 103.706 22.7758 102.577 22.7758C101.803 22.7758 101.287 22.8403 101.029 22.9693C100.771 23.066 100.433 23.3563 100.014 23.84C99.6266 24.3237 99.3041 24.6139 99.0462 24.7107C98.7882 24.8074 98.1916 24.8719 97.2564 24.9042C96.1277 24.9042 95.5633 24.9687 95.5633 25.0977C95.5633 25.3234 95.902 25.4363 96.5792 25.4363C97.2241 25.4363 97.6756 25.4846 97.9336 25.5814C98.0948 25.6459 98.1754 25.7426 98.1754 25.8716C98.1754 26.0974 97.982 26.3231 97.595 26.5488C97.2403 26.7746 96.821 26.9036 96.3373 26.9358L96.2406 26.9358L95.6601 27.0326C95.6923 27.0326 95.8375 27.0487 96.0954 27.0809C96.6437 27.1454 96.9178 27.2422 96.9178 27.3712C96.9178 27.4357 96.6437 27.8388 96.0954 28.5805L95.2731 29.693L96.7727 28.6288C97.8046 27.8871 98.5624 27.4679 99.0462 27.3712C99.5621 27.2422 99.8201 27.0487 99.8201 26.7907C99.8201 26.5005 100.078 26.2102 100.594 25.92C101.142 25.5975 101.674 25.4363 102.19 25.4363C102.803 25.4363 103.109 25.2912 103.109 25.0009C103.109 24.9042 102.98 24.8558 102.722 24.8558C102.529 24.7913 102.722 24.5011 103.303 23.9851C103.948 23.4046 104.27 23.066 104.27 22.9693ZM98.7559 22.9693C98.7237 22.9048 98.5947 22.8564 98.3689 22.8242C98.0465 22.8564 97.9336 22.9048 98.0303 22.9693C98.2883 23.0338 98.5302 23.0338 98.7559 22.9693ZM111.429 4.87803C112.203 4.03958 112.719 3.62035 112.977 3.62035C113.074 3.62035 113.122 3.68485 113.122 3.81384C113.122 3.87834 112.719 4.50718 111.913 5.70036C111.139 6.7968 110.752 7.89324 110.752 8.98968C110.752 9.76364 110.591 10.4086 110.269 10.9246C109.978 11.4083 108.962 12.7788 107.221 15.0362C104.867 18.0353 103.69 19.5671 103.69 19.6316C103.69 19.7606 104.77 19.8251 106.931 19.8251L110.172 19.8251L110.752 21.0828L111.429 22.2921L110.704 22.7758C110.607 22.8403 110.317 23.0499 109.833 23.4046C109.349 23.7594 108.672 24.2592 107.802 24.9042C106.931 25.5491 106.157 26.1135 105.48 26.5972C97.6111 32.4019 93.6285 35.3042 93.5317 35.3042C93.2737 35.3042 92.3869 34.8205 90.8712 33.8531C89.3878 32.9179 88.6461 32.3696 88.6461 32.2084C88.6461 31.9182 91.5484 28.2257 97.3531 21.1311C101.029 16.6164 103.464 13.6818 104.657 12.3274C105.851 10.9729 106.689 10.199 107.173 10.0055C107.947 9.68301 108.656 8.95743 109.301 7.82874C109.882 6.82905 110.591 5.84548 111.429 4.87803ZM133.347 29.1609C133.572 29.2899 133.75 29.2738 133.879 29.1126C133.976 29.0158 133.943 28.9674 133.782 28.9674C133.718 28.9674 133.637 28.9674 133.54 28.9674C133.379 28.9674 133.266 28.9836 133.202 29.0158C133.169 29.0481 133.218 29.0964 133.347 29.1609ZM131.218 29.5479C132.089 29.5479 132.524 29.4512 132.524 29.2577C132.524 29.0642 132.089 28.9674 131.218 28.9674C130.315 28.9674 129.864 29.0642 129.864 29.2577C129.864 29.4512 130.315 29.5479 131.218 29.5479ZM128.558 29.2093C128.429 29.0158 128.106 28.9513 127.59 29.0158C125.139 29.1771 123.801 29.3705 123.575 29.5963C123.511 29.6608 123.479 29.7092 123.479 29.7414C123.479 29.8381 123.914 29.8865 124.785 29.8865L126.042 29.8865C127.752 29.7898 128.606 29.5963 128.606 29.3061C128.606 29.2738 128.59 29.2577 128.558 29.2577C128.558 29.2577 128.558 29.2416 128.558 29.2093ZM133.685 22.1953C133.911 22.1953 134.024 22.0986 134.024 21.9051C134.024 21.7116 133.976 21.6149 133.879 21.6149C133.782 21.6149 133.685 21.7277 133.589 21.9535C133.524 22.1147 133.556 22.1953 133.685 22.1953ZM126.623 22.1953C126.849 22.1953 126.962 22.0986 126.962 21.9051C126.962 21.7116 126.849 21.6149 126.623 21.6149C126.429 21.6149 126.333 21.7116 126.333 21.9051C126.333 22.0986 126.429 22.1953 126.623 22.1953ZM132.96 21.2762C133.056 21.2762 133.105 21.2279 133.105 21.1311C133.105 21.0344 133.056 20.986 132.96 20.986C132.863 20.986 132.815 21.0344 132.815 21.1311C132.815 21.2279 132.863 21.2762 132.96 21.2762ZM132.089 21.2762C132.444 21.1473 132.444 21.0828 132.089 21.0828C131.992 21.0828 131.847 21.0828 131.654 21.0828C131.041 21.0828 130.444 21.1473 129.864 21.2762C129.445 21.4052 129.38 21.4859 129.67 21.5181L130.348 21.5181C131.122 21.5181 131.702 21.4375 132.089 21.2762ZM143.021 30.7088C142.924 30.7088 139.458 31.4506 132.621 32.934C125.817 34.4174 122.398 35.1591 122.366 35.1591C122.237 35.1591 121.592 34.6431 120.431 33.6112C119.27 32.5792 118.69 31.9988 118.69 31.8698C118.69 31.6763 119.577 30.3057 121.35 27.7581L124.059 23.9367L125.268 23.9367C125.365 23.9367 125.591 23.9367 125.946 23.9367C126.333 23.9045 126.655 23.8884 126.913 23.8884C127.139 23.8884 127.494 23.9045 127.977 23.9367C128.493 23.9367 128.88 23.9367 129.138 23.9367L130.299 23.9367C131.105 23.9367 131.509 23.8722 131.509 23.7432C131.509 23.6787 131.46 23.5981 131.363 23.5014C131.105 23.2434 130.412 23.1144 129.283 23.1144L128.074 23.1144L127.203 23.1144C125.72 23.1144 124.978 23.066 124.978 22.9693C124.978 22.7113 125.978 21.1795 127.977 18.3739L131.17 13.8753L137.216 14.0688C142.086 14.1978 145.601 14.3106 147.762 14.4074L152.26 14.6009C151.648 15.4393 151.019 16.3906 150.374 17.4548L145.923 17.4548C143.892 17.4548 142.602 17.4871 142.054 17.5516C141.538 17.6161 141.167 17.7773 140.941 18.0353C140.683 18.2933 140.345 18.4707 139.925 18.5674C139.538 18.6319 138.684 18.6641 137.362 18.6641L134.314 18.6641L133.879 19.5348L133.395 20.4055L139.78 20.4055L142.005 20.4055C143.553 20.4055 144.585 20.4378 145.101 20.5023C145.617 20.5668 145.875 20.7119 145.875 20.9376C145.875 21.0344 145.617 21.5181 145.101 22.3888C144.714 23.0338 144.182 23.4369 143.505 23.5981C142.86 23.7271 140.232 24.0818 135.62 24.6623C132.718 25.017 131.057 25.3234 130.638 25.5814C130.412 25.7104 130.106 26.1457 129.719 26.8874C129.235 27.7581 128.993 28.3064 128.993 28.5321C128.993 28.5966 129.074 28.6288 129.235 28.6288C129.654 28.6288 132.557 28.1935 137.942 27.3228C141.909 26.6778 144.069 26.3553 144.424 26.3553C144.65 26.3553 144.779 26.3876 144.811 26.4521C144.875 26.5166 144.908 26.6133 144.908 26.7423C144.908 27.0003 144.617 27.7259 144.037 28.9191C143.489 30.1123 143.15 30.7088 143.021 30.7088ZM176.184 25.1944C176.377 25.1944 176.474 25.0977 176.474 24.9042C176.474 24.7107 176.442 24.6139 176.377 24.6139C176.248 24.6139 176.135 24.7268 176.039 24.9525C176.039 25.0815 176.087 25.1622 176.184 25.1944ZM176.909 16.1004C176.426 15.9392 174.765 15.8585 171.927 15.8585L170.476 15.8585C168.767 15.8585 167.719 15.9553 167.332 16.1488C166.945 16.3423 166.735 16.8421 166.703 17.6483L166.703 17.9386C166.703 18.2288 166.751 18.4223 166.848 18.519C166.945 18.5835 167.154 18.648 167.477 18.7125L167.573 18.7125C168.315 18.7125 170.057 18.3417 172.798 17.6C175.571 16.826 176.958 16.3423 176.958 16.1488C176.958 16.1165 176.942 16.1004 176.909 16.1004ZM164.478 13.8269L165.058 12.5209L167.186 12.7143C176.055 13.4238 181.714 13.7785 184.165 13.7785C184.681 13.7785 185.245 14.23 185.858 15.133C186.439 16.0037 186.729 16.4874 186.729 16.5841L180.295 18.8093C176.006 20.2282 173.862 21.0021 173.862 21.1311C173.862 21.2279 175.571 21.9373 178.989 23.2595L184.165 25.2912L180.682 28.774L178.506 28.1451C176.796 27.6291 175.942 27.2744 175.942 27.0809C175.942 27.0164 176.119 26.9842 176.474 26.9842C178.602 26.8552 179.667 26.6939 179.667 26.5005C179.667 26.436 178.989 26.4037 177.635 26.4037C176.152 26.4037 175.313 26.5005 175.12 26.6939C174.862 26.9519 174.684 26.9519 174.587 26.6939C174.491 26.5005 174.249 26.4037 173.862 26.4037C173.539 26.4037 172.62 26.1135 171.105 25.533C169.621 24.9525 168.251 24.356 166.993 23.7432C165.897 23.1628 165.235 22.8725 165.01 22.8725C164.945 22.8725 164.51 23.6304 163.704 25.146C162.93 26.6295 162.14 28.129 161.333 29.6447L160.173 31.9182L160.124 31.9182C159.963 31.9182 159.544 31.4989 158.866 30.6605C158.189 29.8543 157.851 29.3061 157.851 29.0158C157.851 28.4998 158.27 27.3228 159.108 25.4846C161.43 20.6152 163.22 16.7292 164.478 13.8269ZM206.557 34.1917L207.186 34.1433L203.994 34.1433L200.849 34.1433C200.978 34.1755 201.172 34.1917 201.43 34.1917C201.656 34.1917 202.059 34.1917 202.639 34.1917C203.22 34.2239 203.671 34.24 203.994 34.24C204.316 34.24 204.768 34.2239 205.348 34.1917C205.961 34.1917 206.364 34.1917 206.557 34.1917ZM216.861 29.8381C217.086 29.9349 217.264 29.9188 217.393 29.7898C217.457 29.693 217.425 29.6447 217.296 29.6447C217.232 29.6447 217.151 29.6447 217.054 29.6447C216.893 29.6447 216.78 29.6608 216.716 29.693C216.683 29.7253 216.732 29.7737 216.861 29.8381ZM236.548 12.0371C237 12.0371 237.387 11.9404 237.709 11.7469C238.032 11.5534 238.274 11.4567 238.435 11.4567C238.661 11.4567 239.289 11.7791 240.321 12.4241C241.353 13.0368 242.047 13.5206 242.401 13.8753L243.079 14.6492L242.305 14.9395C241.724 15.133 241.418 15.2297 241.385 15.2297L239.451 16.1488C238.515 16.6325 237.725 16.8744 237.08 16.8744C236.758 16.8744 236.484 16.8582 236.258 16.826C236.065 16.7937 235.807 16.7776 235.484 16.7776C235.065 16.7776 234.726 16.8744 234.468 17.0679C234.081 17.4548 230.534 19.422 223.826 22.9693C216.764 26.8068 213.233 28.7417 213.233 28.774C213.233 28.903 214.265 28.9674 216.329 28.9674C219.328 28.9674 223.004 28.8707 227.358 28.6772C231.743 28.4837 234.178 28.2902 234.662 28.0967C235.049 27.9678 235.291 27.9033 235.387 27.9033C235.678 27.9033 236.177 28.1935 236.887 28.774C237.661 29.3867 238.112 29.693 238.241 29.693L238.338 29.6447C238.435 29.6447 238.532 29.6285 238.628 29.5963C238.757 29.5963 238.886 29.5963 239.015 29.5963C239.499 29.5963 239.789 29.8704 239.886 30.4186L239.886 30.7088C239.886 31.1603 239.547 31.7892 238.87 32.5954C238.193 33.4338 237.612 33.8531 237.129 33.8531C237.064 33.8531 236.967 33.8369 236.838 33.8047C236.709 33.8047 236.597 33.8047 236.5 33.8047L235.823 33.8047C233.114 33.8047 226.713 34.0465 216.619 34.5303C206.557 35.014 201.382 35.3365 201.091 35.4977C200.962 35.5945 200.785 35.6428 200.559 35.6428C200.205 35.6428 199.543 35.4816 198.576 35.1591C197.318 34.7399 196.689 34.4496 196.689 34.2884C196.689 34.0949 196.528 33.9982 196.206 33.9982C195.787 33.9982 195.029 33.7241 193.932 33.1758C192.836 32.6276 192.288 32.2568 192.288 32.0633C192.288 31.6763 192.658 31.4828 193.4 31.4828C193.755 31.4828 194.061 31.5473 194.319 31.6763C194.448 31.773 194.642 31.8214 194.9 31.8214C195.351 31.8214 196.335 31.5312 197.85 30.9507L200.753 29.8381L202.252 30.6605C203.091 31.0797 203.671 31.2893 203.994 31.2893C204.058 31.2893 204.09 31.2732 204.09 31.2409C204.09 31.112 203.736 30.8378 203.026 30.4186C202.156 29.9026 201.72 29.5157 201.72 29.2577C201.72 29.1287 201.833 28.9674 202.059 28.774C202.252 28.645 207.057 26.307 216.474 21.76C226.019 17.213 231.582 14.4719 233.162 13.5367C234.936 12.537 236.065 12.0371 236.548 12.0371ZM263.734 22.4856C263.734 22.3243 263.605 22.2114 263.347 22.1469C263.122 22.0502 262.88 22.0341 262.622 22.0986C262.17 22.2598 262.09 22.4372 262.38 22.6307C262.509 22.7274 262.702 22.7758 262.96 22.7758C263.476 22.7758 263.734 22.679 263.734 22.4856ZM258.994 22.0018C258.994 21.9373 258.897 21.9051 258.704 21.9051C258.51 21.9051 258.413 22.0018 258.413 22.1953C258.413 22.4533 258.558 22.4533 258.849 22.1953C258.945 22.1308 258.994 22.0663 258.994 22.0018ZM272.49 19.2446L272.78 17.6967C272.78 17.6322 272.667 17.6 272.441 17.6C272.054 17.6 271.587 17.6806 271.038 17.8418C270.49 17.9708 270.184 18.0998 270.119 18.2288C269.958 18.519 268.862 18.6641 266.83 18.6641L263.734 18.6641L263.299 19.5348L262.815 20.4055L264.411 20.4055C265.25 20.4055 266.798 20.47 269.055 20.599L272.151 20.7925L272.49 19.2446ZM258.897 16.6809L260.638 14.2139L266.685 14.359C270.909 14.488 273.747 14.6009 275.198 14.6976L277.617 14.8911L277.472 15.7134C277.311 16.4551 277.182 17.2452 277.085 18.0837C276.956 19.1801 276.682 19.9057 276.263 20.2604C275.811 20.6152 275.069 22.3566 274.038 25.4846L272.538 30.1284L271.184 30.3219C270.248 30.4509 269.781 30.4509 269.781 30.3219C269.781 30.1606 269.974 29.1448 270.361 27.2744C270.78 25.3718 270.99 24.3076 270.99 24.0818C270.99 24.0173 270.861 23.9851 270.603 23.9851C269.99 23.9851 268.991 24.0657 267.604 24.227C265.443 24.4849 263.396 24.6623 261.461 24.7591C260.074 24.8236 259.203 24.9042 258.849 25.0009C258.494 25.0654 258.236 25.2589 258.075 25.5814C257.913 25.9039 257.704 26.1135 257.446 26.2102C257.22 26.2747 256.72 26.307 255.946 26.307C254.721 26.307 253.995 26.3876 253.77 26.5488C253.641 26.6456 253.576 26.7262 253.576 26.7907C253.576 26.9842 254.06 27.0809 255.027 27.0809C255.575 27.0809 256.027 27.0648 256.382 27.0326C257.768 26.8713 258.494 26.6133 258.558 26.2586C258.687 25.9039 258.929 25.7104 259.284 25.6781C259.445 25.7426 259.542 25.8232 259.574 25.92C259.574 26.0167 258.929 27.2744 257.639 29.693L255.704 33.2726L254.06 33.9014C253.254 34.1917 252.721 34.3368 252.463 34.3368C252.27 34.3368 252.109 34.2884 251.98 34.1917C251.948 34.1594 251.819 34.0465 251.593 33.8531C251.367 33.6918 251.109 33.4983 250.819 33.2726C250.561 33.0791 250.319 32.8856 250.093 32.6921L248.69 31.5312L250.19 29.3544C251.19 27.9033 251.835 27.1777 252.125 27.1777C252.286 27.1777 252.367 27.0487 252.367 26.7907C252.367 26.436 253.028 25.275 254.35 23.3079L256.478 20.2604L257.93 20.1153C258.865 19.9863 259.397 19.809 259.526 19.5832C259.59 19.422 259.461 19.3414 259.139 19.3414L258.462 19.3897C257.655 19.5187 257.252 19.5187 257.252 19.3897C257.252 19.1962 257.801 18.2933 258.897 16.6809ZM293.236 21.7116C293.333 21.7116 293.381 21.6632 293.381 21.5665C293.381 21.4697 293.333 21.4214 293.236 21.4214C293.139 21.4214 293.091 21.4697 293.091 21.5665C293.091 21.6632 293.139 21.7116 293.236 21.7116ZM296.767 17.8902C296.864 17.8902 296.912 17.8418 296.912 17.7451C296.912 17.6483 296.864 17.6 296.767 17.6C296.67 17.6 296.622 17.6483 296.622 17.7451C296.622 17.8418 296.67 17.8902 296.767 17.8902ZM283.126 15.1813C283.126 14.8266 283.352 14.6492 283.803 14.6492C284.061 14.6492 284.287 14.746 284.481 14.9395C284.642 15.1007 286.27 15.2942 289.366 15.5199C291.527 15.6812 292.801 15.7618 293.188 15.7618C293.865 15.7618 294.349 15.6651 294.639 15.4716C294.994 15.2781 295.413 15.1813 295.897 15.1813C296.767 15.1813 297.203 15.3587 297.203 15.7134C297.203 15.8102 297.267 15.9069 297.396 16.0037C297.525 16.0682 297.799 16.1327 298.218 16.1972C298.638 16.2617 299.234 16.3423 300.008 16.439C300.782 16.5035 301.814 16.5841 303.104 16.6809C305.523 16.9389 306.942 17.1807 307.361 17.4065C308.167 17.7289 309.102 17.9386 310.166 18.0353C311.424 18.1965 312.053 18.3578 312.053 18.519C312.053 18.8415 311.634 19.0027 310.795 19.0027C310.247 19.0027 308.844 18.8415 306.587 18.519L302.669 17.9386L301.508 18.519C300.863 18.8738 299.992 19.0511 298.896 19.0511L298.218 19.0511L297.348 19.0511C296.413 19.0511 295.897 19.0995 295.8 19.1962C295.606 19.4542 294.316 22.2598 291.93 27.613C289.479 33.063 288.141 35.7879 287.915 35.7879C287.464 35.7879 287.238 35.3365 287.238 34.4335C287.238 33.7241 287.27 33.1113 287.335 32.5954C287.528 30.983 287.754 30.1768 288.012 30.1768C288.302 30.1768 288.528 30.0155 288.689 29.693C288.85 29.3705 289.576 27.484 290.866 24.0335C292.156 20.5829 292.801 18.7931 292.801 18.6641C292.801 18.5351 292.398 18.4707 291.591 18.4707C290.366 18.4384 288.947 18.2772 287.335 17.9869C285.754 17.6967 284.803 17.4065 284.481 17.1162C283.61 16.3423 283.158 15.6973 283.126 15.1813ZM328.784 17.5516C331.01 16.6164 332.251 16.1488 332.509 16.1488C332.703 16.1488 332.944 16.439 333.235 17.0195C333.525 17.5677 333.67 18.0353 333.67 18.4223C333.67 18.4868 333.654 18.5674 333.622 18.6641C333.622 18.7286 333.622 18.7931 333.622 18.8576C333.622 19.4703 333.912 20.4862 334.492 21.9051C335.073 23.324 335.524 24.0818 335.847 24.1786C336.234 24.2753 336.427 24.6946 336.427 25.4363C336.427 25.8877 336.298 26.1135 336.04 26.1135C335.782 26.1135 335.54 25.9845 335.315 25.7265C335.089 25.4685 334.976 25.1944 334.976 24.9042C334.976 24.6462 334.718 24.2592 334.202 23.7432C333.718 23.2273 333.283 22.9048 332.896 22.7758C332.509 22.6145 332.074 22.018 331.59 20.986C331.461 20.6958 331.316 20.4217 331.155 20.1637C331.026 19.9057 330.913 19.7122 330.816 19.5832C330.719 19.422 330.655 19.3575 330.623 19.3897C327.14 21.1311 325.35 22.0018 325.253 22.0018C325.092 22.0018 324.624 22.2759 323.85 22.8242C323.077 23.3401 322.673 23.6626 322.641 23.7916C322.641 23.8561 324.125 24.5172 327.091 25.7749C328.962 26.5488 330.268 27.0487 331.01 27.2744C331.784 27.4679 332.557 27.5646 333.331 27.5646L335.17 27.5646L335.363 29.8865C335.428 30.854 335.46 31.4667 335.46 31.7247C335.46 33.0146 335.153 33.7241 334.541 33.8531C332.283 34.1755 330.01 34.4819 327.72 34.7721C324.495 35.1914 322.577 35.401 321.964 35.401C321.48 35.401 321.013 35.272 320.561 35.014C319.948 34.6593 319.465 34.0465 319.11 33.1758C318.852 32.3696 318.53 31.8214 318.143 31.5312C317.82 31.3054 317.659 30.9668 317.659 30.5154C317.659 30.2896 317.691 30.1284 317.756 30.0316C317.82 29.9671 317.981 29.9349 318.239 29.9349C318.272 29.9349 318.675 29.9671 319.449 30.0316C320.481 30.1284 321.303 30.1768 321.916 30.1768C322.399 30.1768 322.641 30.3057 322.641 30.5637C322.641 30.7572 322.448 30.9023 322.061 30.9991C321.448 31.1603 321.367 31.4667 321.819 31.9182C322.077 32.1761 322.093 32.4664 321.867 32.7889C321.706 33.0468 321.625 33.2403 321.625 33.3693C321.625 33.6918 321.98 33.8531 322.69 33.8531C323.205 33.8531 323.979 33.7563 325.011 33.5628C325.398 33.4983 325.898 33.4177 326.511 33.321C327.124 33.2242 327.624 33.1275 328.01 33.0307C328.43 32.9662 328.72 32.934 328.881 32.934C329.429 32.8695 329.994 32.5792 330.574 32.0633C331.155 31.5473 331.445 31.0797 331.445 30.6605C331.445 30.3702 331.171 30.0639 330.623 29.7414C330.074 29.4512 329.526 29.3061 328.978 29.3061C327.301 29.3061 325.028 28.7578 322.157 27.6614C320.932 27.2099 320.174 26.8874 319.884 26.6939C319.594 26.5005 319.4 26.178 319.303 25.7265C319.207 25.1138 319.271 24.7429 319.497 24.6139C319.755 24.4527 319.626 24.1786 319.11 23.7916L318.384 23.1628L319.255 22.4372C320.674 21.244 323.85 19.6155 328.784 17.5516Z" fill="white"/>
</g>
<defs>
<filter id="filter0_dd_928_9463" x="0.364757" y="0.927998" width="338.606" height="44.1878" filterUnits="userSpaceOnUse" color-interpolation-filters="sRGB">
<feFlood flood-opacity="0" result="BackgroundImageFix"/>
<feColorMatrix in="SourceAlpha" type="matrix" values="0 0 0 0 0 0 0 0 0 0 0 0 0 0 0 0 0 0 127 0" result="hardAlpha"/>
<feOffset dx="-0.598249" dy="0.149562"/>
<feGaussianBlur stdDeviation="1.42084"/>
<feComposite in2="hardAlpha" operator="out"/>
<feColorMatrix type="matrix" values="0 0 0 0 0 0 0 0 0 0.203806 0 0 0 0 0.926389 0 0 0 1 0"/>
<feBlend mode="normal" in2="BackgroundImageFix" result="effect1_dropShadow_928_9463"/>
<feColorMatrix in="SourceAlpha" type="matrix" values="0 0 0 0 0 0 0 0 0 0 0 0 0 0 0 0 0 0 127 0" result="hardAlpha"/>
<feOffset dx="1.94431" dy="0.598249"/>
<feGaussianBlur stdDeviation="0.299124"/>
<feComposite in2="hardAlpha" operator="out"/>
<feColorMatrix type="matrix" values="0 0 0 0 1 0 0 0 0 0 0 0 0 0 0.66 0 0 0 0.85 0"/>
<feBlend mode="normal" in2="effect1_dropShadow_928_9463" result="effect2_dropShadow_928_9463"/>
<feBlend mode="normal" in="SourceGraphic" in2="effect2_dropShadow_928_9463" result="shape"/>
</filter>
</defs>
</svg>
