<svg width="16" height="10" viewBox="0 0 16 10" fill="none" xmlns="http://www.w3.org/2000/svg">
<g filter="url(#filter0_dd_1036_154)">
<path d="M4.49372 8.35255L4.69184 8.33731H3.68603H2.69545C2.73609 8.34747 2.79705 8.35255 2.87833 8.35255C2.94945 8.35255 3.07644 8.35255 3.25932 8.35255C3.44219 8.3627 3.58443 8.36778 3.68603 8.36778C3.78762 8.36778 3.92986 8.3627 4.11273 8.35255C4.30577 8.35255 4.43277 8.35255 4.49372 8.35255ZM7.73976 6.98098C7.81087 7.01146 7.86675 7.00638 7.90739 6.96574C7.92771 6.93526 7.91755 6.92003 7.87691 6.92003C7.85659 6.92003 7.83119 6.92003 7.80071 6.92003C7.74991 6.92003 7.71436 6.92511 7.69404 6.93527C7.68388 6.94542 7.69912 6.96066 7.73976 6.98098ZM13.9423 1.37282C14.0845 1.37282 14.2064 1.34234 14.308 1.28138C14.4096 1.22042 14.4858 1.18994 14.5366 1.18994C14.6077 1.18994 14.8058 1.29154 15.131 1.49473C15.4561 1.68777 15.6745 1.84016 15.7863 1.95192L15.9996 2.19575L15.7558 2.28719C15.5729 2.34815 15.4764 2.37863 15.4662 2.37863L14.8566 2.66818C14.562 2.82058 14.3131 2.89677 14.1099 2.89677C14.0083 2.89677 13.9219 2.89169 13.8508 2.88154C13.7899 2.87138 13.7086 2.8663 13.607 2.8663C13.4749 2.8663 13.3682 2.89678 13.287 2.95773C13.165 3.07965 12.0475 3.69939 9.93426 4.81696C7.70928 6.02597 6.59679 6.63555 6.59679 6.64571C6.59679 6.68635 6.9219 6.70667 7.57212 6.70667C8.51697 6.70667 9.67518 6.67619 11.0467 6.61523C12.4285 6.55427 13.1955 6.49332 13.3479 6.43236C13.4698 6.39172 13.546 6.3714 13.5765 6.3714C13.668 6.3714 13.8254 6.46284 14.0489 6.64571C14.2928 6.83875 14.435 6.93527 14.4757 6.93527L14.5061 6.92003C14.5366 6.92003 14.5671 6.91495 14.5976 6.90479C14.6382 6.90479 14.6788 6.90479 14.7195 6.90479C14.8719 6.90479 14.9633 6.99114 14.9938 7.16386V7.2553C14.9938 7.39753 14.8871 7.59565 14.6738 7.84964C14.4604 8.11379 14.2775 8.24587 14.1251 8.24587C14.1048 8.24587 14.0743 8.24079 14.0337 8.23063C13.9931 8.23063 13.9575 8.23063 13.927 8.23063H13.7137C12.8603 8.23063 10.8436 8.30683 7.66356 8.45922C4.49372 8.61162 2.86309 8.71322 2.77165 8.76401C2.73101 8.79449 2.67513 8.80973 2.60402 8.80973C2.49226 8.80973 2.28398 8.75893 1.97919 8.65734C1.58296 8.52526 1.38485 8.43382 1.38485 8.38302C1.38485 8.32207 1.33405 8.29159 1.23245 8.29159C1.10038 8.29159 0.861623 8.20523 0.516193 8.03251C0.170762 7.8598 -0.00195312 7.74296 -0.00195312 7.682C-0.00195312 7.56009 0.114884 7.49913 0.348557 7.49913C0.460314 7.49913 0.556832 7.51945 0.638109 7.56009C0.678748 7.59057 0.739707 7.60581 0.820984 7.60581C0.963221 7.60581 1.27309 7.51437 1.7506 7.33149L2.66497 6.98098L3.1374 7.24006C3.40155 7.37213 3.58443 7.43817 3.68603 7.43817C3.70635 7.43817 3.71651 7.43309 3.71651 7.42293C3.71651 7.38229 3.60475 7.29594 3.38123 7.16386C3.10692 7.0013 2.96977 6.87939 2.96977 6.79811C2.96977 6.75747 3.00532 6.70667 3.07644 6.64571C3.1374 6.60507 4.6512 5.86849 7.61784 4.43597C10.6251 3.00345 12.3777 2.13988 12.8755 1.84524C13.4343 1.53029 13.7899 1.37282 13.9423 1.37282Z" fill="white"/>
</g>
<defs>
<filter id="filter0_dd_1036_154" x="-0.674965" y="0.404761" width="17.348" height="9.18999" filterUnits="userSpaceOnUse" color-interpolation-filters="sRGB">
<feFlood flood-opacity="0" result="BackgroundImageFix"/>
<feColorMatrix in="SourceAlpha" type="matrix" values="0 0 0 0 0 0 0 0 0 0 0 0 0 0 0 0 0 0 127 0" result="hardAlpha"/>
<feOffset dx="0.224337" dy="0.336506"/>
<feGaussianBlur stdDeviation="0.224337"/>
<feComposite in2="hardAlpha" operator="out"/>
<feColorMatrix type="matrix" values="0 0 0 0 0 0 0 0 0 0.203806 0 0 0 0 0.926389 0 0 0 1 0"/>
<feBlend mode="normal" in2="BackgroundImageFix" result="effect1_dropShadow_1036_154"/>
<feColorMatrix in="SourceAlpha" type="matrix" values="0 0 0 0 0 0 0 0 0 0 0 0 0 0 0 0 0 0 127 0" result="hardAlpha"/>
<feOffset dx="-0.224337" dy="-0.336506"/>
<feGaussianBlur stdDeviation="0.224337"/>
<feComposite in2="hardAlpha" operator="out"/>
<feColorMatrix type="matrix" values="0 0 0 0 1 0 0 0 0 0 0 0 0 0 0.66 0 0 0 0.85 0"/>
<feBlend mode="normal" in2="effect1_dropShadow_1036_154" result="effect2_dropShadow_1036_154"/>
<feBlend mode="normal" in="SourceGraphic" in2="effect2_dropShadow_1036_154" result="shape"/>
</filter>
</defs>
</svg>
