<svg width="483" height="128" viewBox="0 0 483 128" fill="none" xmlns="http://www.w3.org/2000/svg">
<path d="M384.351 2H383.618L383.059 2.47289L372.225 11.635H92.4665L83.412 2.58541L82.8263 2H81.9982H32.0443H31.2162L30.6304 2.58541L2.58617 30.6146L2 31.2005V32.0292V94.219V95.0124L2.54397 95.5901L30.5882 125.371L31.1805 126H32.0443H68.8524H69.5069L70.0347 125.613L82.6526 116.365H174.01L182.179 125.346L182.774 126H183.659H319.498H320.899L321.378 124.684L324.404 116.365H399.878V124V126H401.878H446.574H447.353L447.927 125.473L480.353 95.692L481 95.0976V94.219V38.1606V37.3625L480.451 36.7837L448.024 2.62309L447.433 2H446.574H384.351Z" fill="#3B316E" stroke="url(#paint0_linear_1002_1639)" stroke-width="4"/>
<defs>
<linearGradient id="paint0_linear_1002_1639" x1="38.5728" y1="-9.99998" x2="478.786" y2="149.092" gradientUnits="userSpaceOnUse">
<stop stop-color="#7F6CE1"/>
<stop offset="1" stop-color="#3B316E"/>
</linearGradient>
</defs>
</svg>
